<?xml version="1.0" encoding="UTF-8" standalone="no"?>
<!-- Created with Inkscape (http://www.inkscape.org/) -->

<svg
   version="1.1"
   id="svg1"
   width="122.85512"
   height="130.44388"
   viewBox="0 0 122.85512 130.44388"
   xmlns="http://www.w3.org/2000/svg"
   xmlns:svg="http://www.w3.org/2000/svg">
  <defs
     id="defs1">
    <linearGradient
       id="swatch6">
      <stop
         style="stop-color:#dab3ff;stop-opacity:1;"
         offset="0"
         id="stop6" />
    </linearGradient>
    <linearGradient
       id="swatch4">
      <stop
         style="stop-color:#f2f2f2;stop-opacity:1;"
         offset="0"
         id="stop4" />
    </linearGradient>
    <linearGradient
       id="swatch3">
      <stop
         style="stop-color:#ffffff;stop-opacity:1;"
         offset="0"
         id="stop3" />
    </linearGradient>
  </defs>
  <g
     id="g1"
     transform="translate(0.4275565,0.46377992)">
    <g
       id="g9">
      <path
         id="rect4-2"
         style="fill:#d9b0ff;fill-opacity:1;stroke:none;stroke-width:5.39756;stroke-dasharray:none;stroke-opacity:1"
         d="m 46.95207,105.43563 c -0.533639,0.0113 -1.01866,0.36494 -1.173828,0.90625 l -5.447266,18.99804 c -0.190976,0.66622 0.193154,1.3559 0.859375,1.54688 l 5.496094,1.57617 c 0.666221,0.19098 1.355898,-0.1912 1.546874,-0.85742 l 5.445313,-19 c 0.190976,-0.66622 -0.191201,-1.3559 -0.857421,-1.54688 l -5.496094,-1.57422 c -0.124917,-0.0358 -0.2499,-0.0514 -0.373047,-0.0488 z m 28.097656,0 c -0.123147,-0.003 -0.24813,0.013 -0.373047,0.0488 l -5.496094,1.57422 c -0.666221,0.19098 -1.050351,0.88066 -0.859374,1.54688 l 5.447265,19 c 0.190976,0.66622 0.880654,1.0484 1.546875,0.85742 l 5.496094,-1.57617 c 0.666221,-0.19098 1.048398,-0.88066 0.857422,-1.54688 l -5.445313,-18.99804 c -0.155168,-0.54131 -0.64019,-0.89494 -1.173828,-0.90625 z" />
      <circle
         style="fill:#ff0000;fill-opacity:0"
         id="path1"
         cx="68.615784"
         cy="41.371281"
         r="8.4087973" />
      <circle
         style="fill:#d9b0ff;fill-opacity:0.996078"
         id="path2"
         cx="73.198578"
         cy="46.30854"
         r="5.2554979" />
      <rect
         style="fill:#d9b0ff;fill-opacity:1;stroke-width:0.969873"
         id="rect2"
         width="20.9557"
         height="7.6675406"
         x="72.639381"
         y="-38.275894"
         transform="matrix(0.70804195,0.70617037,-0.72054347,0.69340977,0,0)" />
      <path
         id="rect2-8"
         style="fill:#d9b0ff;fill-opacity:1;stroke-width:0.969873"
         d="m 35.231583,69.275812 8.18985,-3.53e-4 a 5.0002885,5.0002885 45.000395 0 1 5.000504,5.000573 4.2183529,4.2183529 146.96154 0 1 -5.000974,3.252446 l -8.191257,-2.7e-4 a 4.999816,4.999816 45.007458 0 1 -4.999652,-5.000953 4.2188151,4.2188151 146.97251 0 1 5.001529,-3.251443 z m -6.409199,11.678971 14.570393,-3.71e-4 a 5.0013062,5.0013062 44.995575 0 1 5.001434,5.000661 4.036717,4.036717 151.14573 0 1 -5.000434,2.755183 l -14.5718,-4.48e-4 a 5.0006804,5.0006804 45.002385 0 1 -5.000527,-5.000943 4.0371304,4.0371304 151.15783 0 1 5.000934,-2.754082 z"
         transform="matrix(-0.70804195,0.70617037,0.72054347,0.69340977,0,0)" />
      <rect
         style="fill:#000000;fill-opacity:0;stroke:#dab3ff;stroke-width:8.43867;stroke-dasharray:none;stroke-opacity:1"
         id="rect3"
         width="114.41644"
         height="103.485"
         x="3.7917786"
         y="3.7555552"
         ry="15.167269" />
      <path
         style="fill:#d9b0ff;fill-opacity:1;stroke:none;stroke-width:9.74862;stroke-dasharray:none;stroke-opacity:1"
         id="rect4"
         width="66.832108"
         height="7.7296906"
         x="27.583946"
         y="122.24805"
         ry="0"
         rx="0"
         d="m 31.583946,122.24805 h 58.832108 a 4,4 45 0 1 4,4 3.8672078,3.8672078 137.00283 0 1 -4,3.72969 H 31.583946 a 4,4 45 0 1 -4,-4 3.8672078,3.8672078 137.00283 0 1 4,-3.72969 z" />
      <path
         id="path6"
         style="fill:none;fill-opacity:1;stroke:#dab3ff;stroke-width:7.2;stroke-dasharray:none;stroke-opacity:1"
         d="m 41.917969,45.738281 c -4.798789,2.187059 -6.593282,2.969342 -7.322266,3.769531 l -3.210813,3.525203 c -1.48757,1.633227 -2.960002,3.809448 -2.402468,3.963079 l 9.035301,2.498397 a 5.3536054,5.3536054 158.69131 0 0 5.9706,-2.328882 l 4.822182,-7.739421 a 2.1465792,2.1465792 107.81445 0 0 1.119183,-3.482828 c -5.156055,-0.450289 -6.32422,-0.555806 -6.59375,-0.544922 z m 27.141982,22.903692 -7.666777,4.942616 a 5.3532231,5.3532231 110.42337 0 0 -2.236295,6.005718 l 1.512414,5.157277 c 0.621668,2.119864 1.713743,4.509166 2.135395,4.113744 l 3.475367,-3.265061 c 1.610052,-1.512622 3.610947,-3.348722 4.044164,-4.340408 2.115122,-4.831296 2.936682,-6.626491 2.826172,-7.689453 a 3551.2537,3551.2537 84.143838 0 1 -0.728516,-7.091797 z" />
      <path
         style="fill:none;fill-opacity:1;stroke:#dab3ff;stroke-width:7.2;stroke-dasharray:none;stroke-opacity:1"
         d="m 45.664288,67.717678 4.995284,5.245048 a 7.2862442,7.2862442 11.938305 0 0 8.066987,1.705614 l 0.513882,-0.213074 a 38.15885,38.15885 150.01443 0 0 8.588102,-4.955459 l 3.239542,-2.481353 a 58.084075,58.084075 137.62941 0 0 7.360792,-6.714401 l 3.20634,-3.473535 a 40.01645,40.01645 125.58728 0 0 5.774522,-8.069553 l 0.585083,-1.079151 a 158.50452,158.50452 116.65837 0 0 4.484467,-8.932533 l 1.029715,-2.223249 a 40.611252,40.611252 107.83273 0 0 3.039442,-9.448206 l 0.14542,-0.761315 A 3.5167151,3.5167151 45.934248 0 0 92.692777,22.182766 L 89.727966,22.64945 A 33.020293,33.020293 162.44418 0 0 80.30119,25.6318 l -11.597692,5.698288 a 30.638989,30.638989 144.56531 0 0 -8.041396,5.722054 l -4.42747,4.381825 a 53.219914,53.219914 129.9297 0 0 -6.390331,7.634706 l -1.699885,2.467575 a 39.440862,39.440862 117.33756 0 0 -4.555856,8.812631 7.2521872,7.2521872 74.267919 0 0 2.075728,7.368799 z"
         id="path7" />
    </g>
  </g>
</svg>
