<?xml version="1.0" encoding="UTF-8" standalone="no"?>
<!-- Created with Inkscape (http://www.inkscape.org/) -->

<svg
   version="1.1"
   id="svg1"
   width="122.85511"
   height="130.44388"
   viewBox="0 0 122.85511 130.44388"
   xml:space="preserve"
   xmlns="http://www.w3.org/2000/svg"
   xmlns:svg="http://www.w3.org/2000/svg"><defs
     id="defs1" /><path
     id="rect4-2"
     style="fill:#d9b0ff;fill-opacity:1;stroke:none;stroke-width:5.39756;stroke-dasharray:none;stroke-opacity:1"
     d="m 47.379626,105.89941 c -0.533639,0.0113 -1.018659,0.36494 -1.173828,0.90625 l -5.447266,18.99804 c -0.190975,0.66622 0.193154,1.3559 0.859375,1.54688 l 5.496094,1.57617 c 0.666221,0.19098 1.355899,-0.1912 1.546875,-0.85742 l 5.445313,-19 c 0.190975,-0.66622 -0.191201,-1.3559 -0.857422,-1.54688 l -5.496094,-1.57422 c -0.124917,-0.0358 -0.249899,-0.0514 -0.373047,-0.0488 z m 28.097656,0 c -0.123147,-0.003 -0.24813,0.013 -0.373047,0.0488 l -5.496094,1.57422 c -0.666221,0.19098 -1.050351,0.88066 -0.859374,1.54688 l 5.447265,19 c 0.190976,0.66622 0.880654,1.0484 1.546875,0.85742 l 5.496094,-1.57617 c 0.666221,-0.19098 1.048398,-0.88066 0.857422,-1.54688 L 76.65111,106.80564 c -0.155168,-0.54131 -0.64019,-0.89494 -1.173828,-0.90625 z" /><rect
     style="fill:#000000;fill-opacity:0;stroke:#dab3ff;stroke-width:8.43867;stroke-dasharray:none;stroke-opacity:1"
     id="rect3"
     width="114.41644"
     height="103.485"
     x="4.2193351"
     y="4.2193351"
     ry="15.167269" /><path
     style="fill:#d9b0ff;fill-opacity:1;stroke:none;stroke-width:9.74862;stroke-dasharray:none;stroke-opacity:1"
     id="rect4"
     width="66.832108"
     height="7.7296906"
     x="27.583946"
     y="122.24805"
     ry="0"
     rx="0"
     d="M 32.011502,122.71183 H 90.84361 a 4,4 0 0 1 4,4 3.8672078,3.8672078 0 0 1 -4,3.72969 H 32.011502 a 4,4 0 0 1 -3.999999,-4 3.8672078,3.8672078 0 0 1 3.999999,-3.72969 z" /><g
     id="g1"
     transform="matrix(0.63032934,0,0,0.63032934,-208.83928,-8.3197656)"><text
       xml:space="preserve"
       style="font-weight:500;font-size:120px;font-family:Poppins;-inkscape-font-specification:'Poppins Medium';writing-mode:lr-tb;direction:ltr;fill:#d9b0ff;fill-opacity:1;stroke:#dab3ff;stroke-width:4.1;stroke-dasharray:none;stroke-opacity:1"
       x="355.93079"
       y="147.12009"
       id="text9-5"><tspan
         id="tspan2"
         x="355.93079"
         y="147.12009"><tspan
           id="tspan9-2"
           x="355.93079"
           y="147.12009"
           style="font-weight:normal;stroke:#dab3ff;stroke-width:4.1;stroke-dasharray:none;stroke-opacity:1">2d</tspan></tspan></text><g
       id="g6"
       transform="matrix(2.8151369,0,0,2.8151369,-158.99122,-76.252113)"><path
         style="fill:#ffffff;stroke-width:0.289611"
         id="rect1-1"
         width="35.608082"
         height="28.797794"
         x="203.90221"
         y="73.041512"
         d="m 205.48971,73.041512 h 32.43308 a 1.5875,1.5875 45 0 1 1.5875,1.5875 v 25.622798 a 1.5875,1.5875 135 0 1 -1.5875,1.5875 h -32.43308 a 1.5875,1.5875 45 0 1 -1.5875,-1.5875 V 74.629012 a 1.5875,1.5875 135 0 1 1.5875,-1.5875 z" /><path
         style="fill:#252525;fill-opacity:1;stroke-width:0.264583"
         id="rect1"
         width="32.530842"
         height="26.309095"
         x="205.49536"
         y="74.21241"
         d="m 207.08286,74.21241 h 29.35584 a 1.5875,1.5875 45 0 1 1.5875,1.5875 v 23.134095 a 1.5875,1.5875 135 0 1 -1.5875,1.587505 h -29.35584 a 1.5875,1.5875 45 0 1 -1.5875,-1.587505 V 75.79991 a 1.5875,1.5875 135 0 1 1.5875,-1.5875 z" /><path
         id="rect2"
         style="fill:#ffffff;stroke-width:0.264583"
         d="m 210.23471,79.474736 -0.71899,0.661118 c -0.3227,0.296719 -0.88865,0.944928 -0.64029,1.256415 0.013,0.01626 0.26499,0.290244 0.56164,0.612998 l 3.80088,4.135275 c 0.29665,0.322754 0.81705,0.990288 0.57678,1.315632 -0.0204,0.02768 -0.28013,0.309688 -0.57678,0.632439 l -3.95436,4.302197 c -0.29665,0.322751 -0.80617,1.016224 -0.53248,1.305694 0.0143,0.01513 0.28848,0.266944 0.61124,0.563599 l 0.135,0.124093 c 0.32276,0.296655 1.01624,0.806167 1.3057,0.532468 0.0151,-0.01431 0.26694,-0.288496 0.56358,-0.611258 l 3.86809,-4.208625 c 0.29664,-0.322762 0.77597,-0.848132 1.09236,-1.151453 0.10527,-0.100923 0.45415,-0.421213 0.7769,-0.717879 l 0.0529,-0.0486 c 0.32275,-0.296666 0.93303,-0.767039 0.81848,-1.064262 l 0.003,-0.0026 -0.0305,-0.0279 -6.42781,-6.993431 c -0.29666,-0.322756 -0.68104,-0.745598 -0.90456,-0.754933 l -4.1e-4,8e-6 z m 8.1605,13.564698 c -0.001,0.02072 -0.001,0.392946 -0.001,0.831322 l 0,0.642855 c 0,0.438376 0.0942,1.293729 0.4916,1.321604 0.0207,0.0015 0.39294,0.0013 0.83132,0.0013 l 11.39776,0 c 0.43838,0 1.29373,-0.09421 1.3216,-0.491605 0.001,-0.02071 0.001,-0.392936 0.001,-0.831312 l 0,-0.642855 c 0,-0.438376 -0.0942,-1.293729 -0.4916,-1.321604 -0.0207,-0.0015 -0.39293,-0.0013 -0.83131,-0.0013 h -11.39776 c -0.43838,0 -1.29373,0.0942 -1.32161,0.491595 z" /></g></g></svg>
