<?xml version="1.0" encoding="UTF-8" standalone="no"?>
<!-- Created with Inkscape (http://www.inkscape.org/) -->

<svg
   version="1.1"
   id="svg1"
   width="122.85512"
   height="130.44388"
   viewBox="0 0 122.85512 130.44388"
   xml:space="preserve"
   xmlns="http://www.w3.org/2000/svg"
   xmlns:svg="http://www.w3.org/2000/svg"><defs
     id="defs1" /><path
     id="rect4-2"
     style="fill:#d9b0ff;fill-opacity:1;stroke:none;stroke-width:5.39756;stroke-dasharray:none;stroke-opacity:1"
     d="m 47.379626,105.89941 c -0.533639,0.0113 -1.018659,0.36494 -1.173828,0.90625 l -5.447266,18.99804 c -0.190975,0.66622 0.193154,1.3559 0.859375,1.54688 l 5.496094,1.57617 c 0.666221,0.19098 1.355899,-0.1912 1.546875,-0.85742 l 5.445313,-19 c 0.190975,-0.66622 -0.191201,-1.3559 -0.857422,-1.54688 l -5.496094,-1.57422 c -0.124917,-0.0358 -0.249899,-0.0514 -0.373047,-0.0488 z m 28.097656,0 c -0.123147,-0.003 -0.24813,0.013 -0.373047,0.0488 l -5.496094,1.57422 c -0.666221,0.19098 -1.050351,0.88066 -0.859374,1.54688 l 5.447265,19 c 0.190976,0.66622 0.880654,1.0484 1.546875,0.85742 l 5.496094,-1.57617 c 0.666221,-0.19098 1.048398,-0.88066 0.857422,-1.54688 L 76.65111,106.80564 c -0.155168,-0.54131 -0.64019,-0.89494 -1.173828,-0.90625 z" /><rect
     style="fill:#000000;fill-opacity:0;stroke:#dab3ff;stroke-width:8.43867;stroke-dasharray:none;stroke-opacity:1"
     id="rect3"
     width="114.41644"
     height="103.485"
     x="4.2193351"
     y="4.2193351"
     ry="15.167269" /><path
     style="fill:#d9b0ff;fill-opacity:1;stroke:none;stroke-width:9.74862;stroke-dasharray:none;stroke-opacity:1"
     id="rect4"
     width="66.832108"
     height="7.7296906"
     x="27.583946"
     y="122.24805"
     ry="0"
     rx="0"
     d="M 32.011502,122.71183 H 90.84361 a 4,4 0 0 1 4,4 3.8672078,3.8672078 0 0 1 -4,3.72969 H 32.011502 a 4,4 0 0 1 -3.999999,-4 3.8672078,3.8672078 0 0 1 3.999999,-3.72969 z" /><g
     id="g1"
     transform="matrix(0.63032934,0,0,0.63032934,-208.83928,-8.3197656)"><text
       xml:space="preserve"
       style="font-weight:500;font-size:120px;font-family:Poppins;-inkscape-font-specification:'Poppins Medium';writing-mode:lr-tb;direction:ltr;fill:#d9b0ff;fill-opacity:1;stroke:#dab3ff;stroke-width:4.1;stroke-dasharray:none;stroke-opacity:1"
       x="355.93079"
       y="147.12009"
       id="text9-5"><tspan
         id="tspan2"
         x="355.93079"
         y="147.12009"><tspan
           id="tspan9-2"
           x="355.93079"
           y="147.12009"
           style="font-weight:normal;stroke:#dab3ff;stroke-width:4.1;stroke-dasharray:none;stroke-opacity:1">2d</tspan></tspan></text></g></svg>
