<?xml version="1.0" encoding="UTF-8" standalone="no"?>
<!-- Created with Inkscape (http://www.inkscape.org/) -->

<svg
   version="1.1"
   id="svg1"
   width="740.49615"
   height="130.44388"
   viewBox="0 0 740.49615 130.44388"
   sodipodi:docname="logo.svg"
   xmlns:inkscape="http://www.inkscape.org/namespaces/inkscape"
   xmlns:sodipodi="http://sodipodi.sourceforge.net/DTD/sodipodi-0.dtd"
   xmlns="http://www.w3.org/2000/svg"
   xmlns:svg="http://www.w3.org/2000/svg">
  <sodipodi:namedview
     id="namedview1"
     pagecolor="#505050"
     bordercolor="#ffffff"
     borderopacity="1"
     inkscape:showpageshadow="0"
     inkscape:pageopacity="0"
     inkscape:pagecheckerboard="1"
     inkscape:deskcolor="#505050">
    <inkscape:page
       x="0"
       y="0"
       width="740.49615"
       height="130.44388"
       id="page2"
       margin="0"
       bleed="0" />
  </sodipodi:namedview>
  <defs
     id="defs1" />
  <g
     id="g2"
     transform="translate(-11,57.000001)">
    <path
       id="rect4-2-2"
       style="fill:#d9b0ff;fill-opacity:1;stroke:none;stroke-width:5.39756;stroke-dasharray:none;stroke-opacity:1"
       d="m 58.379626,48.89941 c -0.533639,0.0113 -1.018659,0.36494 -1.173828,0.90625 L 51.758532,68.8037 c -0.190975,0.66622 0.193154,1.3559 0.859375,1.54688 l 5.496094,1.57617 c 0.666221,0.19098 1.355899,-0.1912 1.546875,-0.85742 l 5.445313,-19 c 0.190975,-0.66622 -0.191201,-1.3559 -0.857422,-1.54688 l -5.496094,-1.57422 c -0.124917,-0.0358 -0.249899,-0.0514 -0.373047,-0.0488 z m 28.097656,0 c -0.123147,-0.003 -0.24813,0.013 -0.373047,0.0488 l -5.496094,1.57422 c -0.666221,0.19098 -1.050351,0.88066 -0.859374,1.54688 l 5.447265,19 c 0.190976,0.66622 0.880654,1.0484 1.546875,0.85742 l 5.496094,-1.57617 c 0.666221,-0.19098 1.048398,-0.88066 0.857422,-1.54688 L 87.65111,49.80564 C 87.495942,49.26433 87.01092,48.9107 86.477282,48.89939 Z" />
    <rect
       style="fill:#000000;fill-opacity:0;stroke:#dab3ff;stroke-width:8.43867;stroke-dasharray:none;stroke-opacity:1"
       id="rect3-3"
       width="114.41644"
       height="103.485"
       x="15.219336"
       y="-52.780666"
       ry="15.167269" />
    <path
       style="fill:#d9b0ff;fill-opacity:1;stroke:none;stroke-width:9.74862;stroke-dasharray:none;stroke-opacity:1"
       id="rect4-22"
       width="66.832108"
       height="7.7296906"
       x="27.583946"
       y="122.24805"
       ry="0"
       rx="0"
       d="m 43.011502,65.71183 h 58.832108 a 4,4 0 0 1 4,4 3.8672078,3.8672078 0 0 1 -4,3.72969 H 43.011502 a 4,4 0 0 1 -3.999999,-4 3.8672078,3.8672078 0 0 1 3.999999,-3.72969 z" />
    <text
       xml:space="preserve"
       style="font-weight:500;font-size:75.6395px;font-family:Poppins;-inkscape-font-specification:'Poppins Medium';writing-mode:lr-tb;direction:ltr;fill:#d9b0ff;fill-opacity:1;stroke:#dab3ff;stroke-width:2.58435;stroke-dasharray:none;stroke-opacity:1"
       x="26.514338"
       y="27.414341"
       id="text9-5"><tspan
         sodipodi:role="line"
         id="tspan2"
         x="26.514338"
         y="27.414341"
         style="stroke-width:2.58435"><tspan
           id="tspan9-2"
           x="26.514338"
           y="27.414341"
           style="font-weight:normal;stroke:#dab3ff;stroke-width:2.58435;stroke-dasharray:none;stroke-opacity:1">2d</tspan></tspan></text>
  </g>
  <text
     xml:space="preserve"
     style="font-weight:500;font-size:120px;font-family:Poppins;-inkscape-font-specification:'Poppins Medium';writing-mode:lr-tb;direction:ltr;fill:#d9b0ff;fill-opacity:1;stroke:#dab3ff;stroke-width:4.1;stroke-dasharray:none;stroke-opacity:1"
     x="130.886"
     y="110.46407"
     id="text9"><tspan
       id="tspan9"
       x="130.886"
       y="110.46407"
       style="font-weight:normal;stroke:#dab3ff;stroke-width:4.1;stroke-dasharray:none;stroke-opacity:1">ballistic2d</tspan></text>
</svg>
