<?xml version="1.0" encoding="UTF-8" standalone="no"?>
<!-- Created with Inkscape (http://www.inkscape.org/) -->

<svg
   version="1.1"
   id="svg1"
   width="603.38019"
   height="432.80188"
   viewBox="0 0 603.38019 432.80188"
   sodipodi:docname="splash.svg"
   inkscape:export-filename="logo2.png"
   inkscape:export-xdpi="96"
   inkscape:export-ydpi="96"
   xmlns:inkscape="http://www.inkscape.org/namespaces/inkscape"
   xmlns:sodipodi="http://sodipodi.sourceforge.net/DTD/sodipodi-0.dtd"
   xmlns="http://www.w3.org/2000/svg"
   xmlns:svg="http://www.w3.org/2000/svg">
  <defs
     id="defs1">
    <linearGradient
       id="swatch6"
       inkscape:swatch="solid">
      <stop
         style="stop-color:#dab3ff;stop-opacity:1;"
         offset="0"
         id="stop6" />
    </linearGradient>
    <linearGradient
       id="swatch4"
       inkscape:swatch="solid">
      <stop
         style="stop-color:#f2f2f2;stop-opacity:1;"
         offset="0"
         id="stop4" />
    </linearGradient>
    <linearGradient
       id="swatch3"
       inkscape:swatch="solid">
      <stop
         style="stop-color:#ffffff;stop-opacity:1;"
         offset="0"
         id="stop3" />
    </linearGradient>
  </defs>
  <sodipodi:namedview
     id="namedview1"
     pagecolor="#505050"
     bordercolor="#ffffff"
     borderopacity="1"
     inkscape:showpageshadow="0"
     inkscape:pageopacity="0"
     inkscape:pagecheckerboard="1"
     inkscape:deskcolor="#505050">
    <inkscape:page
       x="0"
       y="0"
       width="603.38019"
       height="432.80188"
       id="page1"
       margin="0"
       bleed="0" />
  </sodipodi:namedview>
  <g
     inkscape:groupmode="layer"
     inkscape:label="Image"
     id="g1"
     transform="translate(240.69009,192.8937)">
    <text
       xml:space="preserve"
       style="font-weight:500;font-size:120px;font-family:Poppins;-inkscape-font-specification:'Poppins Medium';writing-mode:lr-tb;direction:ltr;fill:#d9b0ff;fill-opacity:1;stroke:#dab3ff;stroke-width:4.1;stroke-dasharray:none;stroke-opacity:1"
       x="-246.92012"
       y="237.01816"
       id="text9"><tspan
         sodipodi:role="line"
         id="tspan9"
         x="-246.92012"
         y="237.01816"
         style="font-weight:normal;stroke:#dab3ff;stroke-width:4.1;stroke-dasharray:none;stroke-opacity:1">ballistic2d</tspan></text>
    <g
       id="g2"
       transform="translate(1.5674506)">
      <path
         id="rect4-2-7"
         style="fill:#d9b0ff;fill-opacity:1;stroke:none;stroke-width:13.4097;stroke-dasharray:none;stroke-opacity:1"
         d="m 24.531858,70.20305 c -1.325777,0.02807 -2.530762,0.906658 -2.916266,2.251489 L 8.0823835,119.65331 c -0.474447,1.65516 0.479886,3.36861 2.1350455,3.84307 l 13.654496,3.91584 c 1.655159,0.47447 3.368602,-0.47502 3.843073,-2.13018 L 41.243336,78.078406 c 0.474447,-1.655159 -0.475017,-3.368601 -2.130175,-3.843072 L 25.458639,70.324339 c -0.310326,-0.08894 -0.620852,-0.127698 -0.926781,-0.121238 z m 69.805857,0 c -0.305955,-0.0075 -0.616455,0.0323 -0.926806,0.121239 l -13.654497,3.910996 c -1.655158,0.474471 -2.609492,2.187913 -2.135021,3.843071 l 13.533183,47.203634 c 0.474472,1.65516 2.187914,2.60465 3.843072,2.13018 l 13.654494,-3.91584 c 1.65516,-0.47446 2.60465,-2.18791 2.13018,-3.84307 L 97.253977,72.45449 c -0.3855,-1.344831 -1.590488,-2.223391 -2.916262,-2.251489 z" />
      <rect
         style="fill:#000000;fill-opacity:0;stroke:#dab3ff;stroke-width:20.9651;stroke-dasharray:none;stroke-opacity:1"
         id="rect3-6"
         width="284.25644"
         height="257.09833"
         x="-82.695671"
         y="-182.41115"
         ry="37.681595" />
      <path
         style="fill:#d9b0ff;fill-opacity:1;stroke:none;stroke-width:24.2195;stroke-dasharray:none;stroke-opacity:1"
         id="rect4-1"
         width="66.832108"
         height="7.7296906"
         x="27.583946"
         y="122.24805"
         ry="0"
         rx="0"
         d="M -13.648755,111.97186 H 132.51385 a 9.9376079,9.9376079 0 0 1 9.93761,9.93761 9.6076987,9.6076987 0 0 1 -9.93761,9.26605 H -13.648755 a 9.9376079,9.9376079 0 0 1 -9.937608,-9.9376 9.6076987,9.6076987 0 0 1 9.937608,-9.26606 z" />
      <text
         xml:space="preserve"
         style="font-weight:500;font-size:187.919px;font-family:Poppins;-inkscape-font-specification:'Poppins Medium';writing-mode:lr-tb;direction:ltr;fill:#d9b0ff;fill-opacity:1;stroke:#dab3ff;stroke-width:6.42057;stroke-dasharray:none;stroke-opacity:1"
         x="-54.634331"
         y="16.825497"
         id="text9-5"><tspan
           sodipodi:role="line"
           id="tspan2"
           x="-54.634331"
           y="16.825497"
           style="stroke-width:6.42057"><tspan
             id="tspan9-2"
             x="-54.634331"
             y="16.825497"
             style="font-weight:normal;stroke:#dab3ff;stroke-width:6.42057;stroke-dasharray:none;stroke-opacity:1">2d</tspan></tspan></text>
    </g>
  </g>
</svg>
